<svg version="1.1" id="Layer_1" xmlns="http://www.w3.org/2000/svg" xmlns:xlink="http://www.w3.org/1999/xlink" x="0px" y="0px"
	 width="100%" viewBox="0 0 396 360" enable-background="new 0 0 396 360" xml:space="preserve">
<path fill="#FEFEFE" opacity="1.000000" stroke="none" 
	d="
M1.000000,134.000000 
	C1.000000,89.333336 1.000000,45.166668 1.000000,1.000000 
	C133.000000,1.000000 265.000000,1.000000 397.000000,1.000000 
	C397.000000,121.000000 397.000000,241.000000 397.000000,361.000000 
	C265.000000,361.000000 133.000000,361.000000 1.000000,361.000000 
	C1.000000,285.500000 1.000000,210.000000 1.000000,134.000000 
M189.819458,237.704224 
	C190.251175,236.518173 190.682892,235.332123 191.832809,233.742447 
	C195.211121,233.866379 198.589828,234.082336 201.967545,234.068054 
	C203.283768,234.062485 204.925858,233.904984 205.799316,233.123489 
	C206.396790,232.588943 206.389526,230.220642 205.820358,229.801056 
	C204.876831,229.105499 203.251251,229.114014 201.934311,229.190887 
	C198.940903,229.365677 195.960434,229.762253 193.029877,229.557281 
	C193.062866,229.389038 193.095856,229.220795 193.786224,228.844894 
	C195.539612,225.564087 197.292999,222.283279 199.589218,218.587738 
	C200.919968,215.748245 202.250717,212.908768 204.442154,210.155930 
	C211.553864,210.137939 218.665588,210.119934 225.868042,210.724335 
	C225.908279,211.141815 225.948517,211.559311 225.458496,212.414948 
	C222.605026,218.132767 219.751541,223.850586 216.560791,230.244232 
	C224.542236,230.244232 231.746933,230.244232 239.818954,230.544220 
	C242.553207,230.429626 245.287445,230.315033 248.904312,230.499893 
	C255.255829,230.408356 261.607361,230.316818 268.801849,230.532867 
	C270.872711,230.418106 272.943604,230.303360 275.827698,230.492340 
	C280.047729,229.840973 282.276215,231.827621 283.973450,235.642838 
	C286.662445,241.687439 289.695190,247.618179 293.068329,253.309128 
	C296.954559,259.865753 302.249786,265.016266 310.172516,267.298859 
	C310.172516,267.298859 310.487152,267.443665 310.487152,267.443665 
	C310.487152,267.443665 310.813446,267.327881 311.523193,267.761322 
	C312.070374,267.825317 312.617554,267.889313 313.782837,268.381165 
	C317.532928,268.613281 321.282990,268.845367 325.786011,269.259613 
	C326.533417,269.428497 327.280853,269.597382 328.153778,270.339355 
	C336.811279,280.182861 348.863953,281.949646 359.910187,274.994507 
	C369.973450,268.658295 373.938232,254.255295 368.647308,243.254929 
	C363.016510,231.547928 350.672913,226.240875 338.734436,230.640717 
	C335.679596,231.766556 332.919006,233.690842 329.529297,234.734955 
	C325.029541,226.470627 320.529816,218.206314 315.947784,209.296402 
	C315.284943,208.200455 314.622131,207.104507 313.895996,205.291550 
	C310.323273,198.704559 306.750549,192.117569 303.063965,184.891891 
	C302.060577,183.255768 301.057190,181.619644 299.973969,179.332504 
	C299.282715,178.222504 298.591431,177.112518 297.784485,175.315216 
	C293.154388,166.877121 288.524292,158.439011 283.811157,149.308105 
	C280.459717,143.015991 277.104584,136.725800 273.757629,130.431305 
	C267.919708,119.452087 262.141693,108.440559 256.236450,97.497681 
	C250.176849,86.268799 238.810120,82.080734 227.217346,86.890862 
	C226.760666,87.146950 226.303970,87.403046 225.164688,87.843803 
	C218.801361,90.981812 216.099854,96.789787 213.607544,103.586823 
	C211.136047,107.919357 208.664536,112.251892 205.271133,116.268883 
	C198.530716,116.175949 191.790298,116.083015 184.934402,115.276833 
	C181.428192,108.972839 176.605286,108.073410 171.064270,113.300758 
	C170.739853,115.857719 170.415421,118.414673 169.505966,121.447182 
	C168.769165,126.987114 170.048859,129.073898 176.408142,129.769241 
	C181.735809,130.351746 183.498642,133.249191 183.068039,137.995316 
	C178.451294,138.032944 173.834534,138.070572 168.830597,137.503403 
	C164.076889,129.965073 158.190491,129.896149 153.027969,137.181946 
	C150.779846,137.329987 148.531708,137.478027 145.312408,137.576752 
	C138.563660,137.654739 131.814911,137.732712 124.621254,137.487823 
	C124.110367,137.289536 123.599472,137.091263 122.942657,136.208694 
	C121.687828,133.781113 120.432999,131.353531 119.089737,128.205780 
	C114.452850,119.443954 109.815956,110.682121 105.061562,101.229240 
	C100.955414,94.615395 95.386208,89.775185 87.358894,86.734512 
	C81.579811,85.806427 75.800735,84.878342 69.724182,83.353088 
	C68.562737,82.160675 67.486588,80.868340 66.225891,79.792206 
	C58.566467,73.254082 46.345615,71.342628 37.319191,79.017700 
	C36.155811,80.256516 34.992432,81.495331 33.259102,83.134315 
	C25.441980,92.682304 26.205935,106.220413 35.349220,115.474052 
	C45.234806,124.537720 55.967766,124.615456 67.744820,118.935654 
	C68.226349,119.637352 68.707870,120.339058 69.194946,121.538383 
	C69.494484,121.927002 69.794022,122.315628 70.014580,122.872131 
	C70.014580,122.872131 70.188896,122.935638 70.312996,123.623230 
	C73.842079,130.149139 77.371170,136.675049 80.935799,143.858536 
	C81.563179,144.932449 82.190552,146.006363 83.058830,147.745483 
	C85.002220,151.176712 86.945610,154.607925 88.906700,158.772827 
	C91.239075,162.918243 93.571449,167.063644 95.952019,171.836655 
	C96.369102,172.557480 96.786186,173.278305 97.272354,174.646729 
	C98.156258,176.109863 99.040161,177.572998 100.022041,179.701950 
	C100.486183,180.466095 100.950325,181.230225 101.593124,182.635315 
	C103.698723,186.433319 105.804329,190.231308 107.953987,194.754242 
	C109.980354,198.546631 112.045006,202.319122 114.026550,206.134781 
	C123.292038,223.976349 132.447281,241.875870 141.827240,259.656921 
	C145.718414,267.033234 152.221359,270.902710 160.511078,270.826843 
	C167.959335,270.758759 174.601318,268.460083 178.784180,260.675079 
	C180.198776,257.469849 181.613373,254.264603 183.555710,250.636185 
	C184.693985,248.734497 185.832245,246.832794 187.763092,245.157516 
	C194.228943,245.190445 200.705017,245.034180 207.153824,245.382614 
	C208.874756,245.475586 210.998413,246.727615 212.096481,248.113586 
	C215.325043,252.188736 220.056137,253.155334 223.801071,250.022827 
	C226.907547,247.424377 227.190002,242.334808 224.395157,239.318619 
	C221.326248,236.006653 215.992493,236.418106 212.455658,239.955399 
	C211.333374,241.077820 209.571655,242.166031 208.074844,242.204971 
	C201.289948,242.381470 194.495132,242.177200 187.857986,241.567459 
	C187.854340,241.379501 187.850708,241.191544 188.312958,240.528183 
	C188.646851,239.717285 188.980743,238.906403 189.819458,237.704224 
M132.960419,45.967319 
	C127.209702,49.425045 126.372467,52.271713 128.806168,61.495651 
	C132.367981,58.949883 135.723068,56.551857 139.817535,54.107189 
	C144.460312,51.380661 149.103088,48.654129 154.448639,45.781841 
	C162.389450,40.893684 170.330261,36.005527 178.943039,30.989973 
	C183.551712,28.285173 188.160385,25.580374 193.507385,23.205612 
	C197.076645,23.517252 200.597641,27.138069 204.881424,23.628296 
	C205.272461,23.889210 205.663513,24.150124 206.262009,24.694880 
	C206.435104,24.862328 206.638733,24.974224 207.564255,25.155233 
	C219.638443,32.470528 231.712646,39.785824 244.222229,47.631187 
	C255.499695,54.372715 266.777161,61.114243 278.490601,68.375328 
	C289.329651,74.808914 300.168701,81.242500 311.534515,88.150444 
	C314.758850,90.138306 317.935516,92.209663 321.222656,94.087624 
	C323.858734,95.593605 325.166260,97.362938 325.016907,100.726791 
	C324.702759,107.801682 325.003693,114.903877 324.881012,122.920059 
	C324.960114,130.616623 325.039246,138.313171 324.966766,146.935165 
	C325.097778,154.970886 325.228790,163.006622 325.378876,171.371399 
	C325.378876,171.371399 325.615723,171.599564 325.615723,171.599564 
	C325.615723,171.599564 325.944672,171.599289 326.485291,172.059723 
	C329.203064,174.095627 331.920868,176.131516 335.474213,178.793320 
	C335.474213,165.121460 335.474213,152.509415 335.624420,139.102768 
	C335.602386,132.053894 335.580383,125.005013 335.756805,117.046059 
	C335.784515,109.391380 335.918793,101.734383 335.752136,94.083946 
	C335.717834,92.508652 335.010040,90.244041 333.847534,89.511665 
	C326.355957,84.791962 318.651733,80.409729 310.611298,75.386192 
	C301.432861,69.876373 292.254425,64.366554 282.670197,58.322025 
	C270.128082,50.840000 257.585999,43.357975 244.661911,35.328381 
	C232.437393,27.957121 220.212875,20.585863 207.470383,12.751958 
	C205.371490,11.429957 203.400040,9.784289 201.132202,8.891389 
	C199.409241,8.213014 196.851044,7.684797 195.452744,8.478493 
	C187.416290,13.040075 179.614975,18.015888 171.065399,23.017065 
	C161.316849,28.978449 151.568298,34.939831 141.146439,41.026836 
	C138.646164,42.616951 136.145874,44.207062 132.960419,45.967319 
M190.780258,324.008972 
	C189.523392,323.336548 188.266510,322.664124 186.581726,321.470032 
	C149.324646,298.878937 112.086098,276.257111 74.775856,253.754150 
	C71.740913,251.923691 70.492271,249.979584 70.540939,246.288513 
	C70.793480,227.136078 70.279320,207.964325 70.945816,188.831116 
	C71.213516,181.145981 68.838326,176.191971 61.987488,172.385025 
	C61.355175,172.165741 60.722858,171.946472 60.090546,171.727188 
	C60.097477,172.473022 60.104404,173.218842 59.936058,174.892120 
	C59.904465,199.870178 60.007038,224.849731 59.725601,249.824982 
	C59.670750,254.692551 61.055290,257.445190 65.348701,259.994324 
	C86.939499,272.813477 108.268188,286.073151 129.740112,299.093719 
	C146.363541,309.174194 163.062454,319.130249 180.108719,329.700928 
	C182.050690,330.841888 183.992661,331.982819 186.229599,333.750793 
	C188.094543,334.753815 190.249023,335.437805 191.770859,336.818878 
	C196.579163,341.182404 200.826950,340.039703 205.622009,335.967773 
	C206.107986,335.372284 206.593964,334.776825 207.828781,334.136475 
	C215.889954,329.432281 223.951126,324.728088 232.708252,319.929352 
	C238.127899,316.588287 243.547546,313.247223 249.655365,309.794098 
	C252.945633,307.849121 256.041504,305.384308 259.566223,304.066254 
	C267.144897,301.232147 269.217102,295.892120 267.873047,288.515015 
	C267.816895,288.206970 267.726746,287.905121 267.579620,287.301758 
	C266.647400,287.676117 265.691071,287.915588 264.887360,288.405457 
	C257.531311,292.888824 250.201782,297.415710 242.188095,302.078827 
	C235.668243,306.005890 229.148376,309.932983 221.960693,313.997803 
	C215.595352,317.853241 209.229996,321.708679 202.227188,325.807892 
	C200.802002,326.831940 199.376816,327.855988 197.287872,328.766571 
	C195.249878,327.337219 193.211899,325.907898 190.780258,324.008972 
z"/>
<path fill="#302872" opacity="1.000000" stroke="none" 
	d="
M179.727798,329.141602 
	C163.062454,319.130249 146.363541,309.174194 129.740112,299.093719 
	C108.268188,286.073151 86.939499,272.813477 65.348701,259.994324 
	C61.055290,257.445190 59.670750,254.692551 59.725601,249.824982 
	C60.007038,224.849731 59.904465,199.870178 60.297318,174.305847 
	C61.187695,173.440247 61.716808,173.160919 62.245926,172.881592 
	C68.838326,176.191971 71.213516,181.145981 70.945816,188.831116 
	C70.279320,207.964325 70.793480,227.136078 70.540939,246.288513 
	C70.492271,249.979584 71.740913,251.923691 74.775856,253.754150 
	C112.086098,276.257111 149.324646,298.878937 186.793030,322.151245 
	C186.934738,324.419403 186.865112,326.006348 186.837341,326.639648 
	C183.915375,327.667938 181.821594,328.404785 179.727798,329.141602 
z"/>
<path fill="#302772" opacity="1.000000" stroke="none" 
	d="
M178.245148,261.093048 
	C174.601318,268.460083 167.959335,270.758759 160.511078,270.826843 
	C152.221359,270.902710 145.718414,267.033234 141.827240,259.656921 
	C132.447281,241.875870 123.292038,223.976349 114.026550,206.134781 
	C112.045006,202.319122 109.980354,198.546631 108.359947,194.383194 
	C111.843735,193.008102 114.921562,192.004059 118.343430,191.052979 
	C122.377838,193.726440 125.761833,197.178894 129.861267,198.688538 
	C132.824524,199.779755 134.062347,201.097992 135.127579,203.688309 
	C136.101593,206.056808 137.245819,208.690796 139.104630,210.290039 
	C142.962585,213.609299 147.531509,216.098099 151.423035,219.384369 
	C153.106659,220.806137 153.765121,223.402451 155.016647,225.384827 
	C156.777985,228.174759 158.079742,232.266296 160.615402,233.331238 
	C164.989700,235.168365 165.979767,238.796646 167.831451,242.096710 
	C169.103973,244.364594 169.802795,246.965942 171.156296,249.174133 
	C173.190262,252.492477 177.245026,254.707306 176.472794,259.536469 
	C176.406616,259.950287 177.624008,260.569336 178.245148,261.093048 
z"/>
<path fill="#2F2E75" opacity="1.000000" stroke="none" 
	d="
M178.514664,260.884064 
	C177.624008,260.569336 176.406616,259.950287 176.472794,259.536469 
	C177.245026,254.707306 173.190262,252.492477 171.156296,249.174133 
	C169.802795,246.965942 169.103973,244.364594 167.831451,242.096710 
	C165.979767,238.796646 164.989700,235.168365 160.615402,233.331238 
	C158.079742,232.266296 156.777985,228.174759 155.016647,225.384827 
	C153.765121,223.402451 153.106659,220.806137 151.423035,219.384369 
	C147.531509,216.098099 142.962585,213.609299 139.104630,210.290039 
	C137.245819,208.690796 136.101593,206.056808 135.127579,203.688309 
	C134.062347,201.097992 132.824524,199.779755 129.861267,198.688538 
	C125.761833,197.178894 122.377838,193.726440 118.343613,190.646210 
	C116.923737,186.383575 115.847702,182.580704 114.766319,178.758911 
	C110.722290,179.738876 106.068382,180.866623 101.414474,181.994370 
	C100.950325,181.230225 100.486183,180.466095 100.303131,179.195709 
	C101.151199,177.049835 101.718178,175.410202 102.610458,172.829834 
	C99.934807,173.408447 98.569038,173.703796 97.203270,173.999130 
	C96.786186,173.278305 96.369102,172.557480 96.077332,171.168640 
	C96.031891,167.808136 95.861122,165.115677 95.641983,161.660492 
	C100.014977,163.817642 105.414642,169.835144 107.318298,159.812408 
	C107.561020,159.849228 108.001175,160.066818 108.200928,160.396927 
	C115.937721,161.236603 121.432045,166.589417 128.024170,169.371964 
	C128.336319,171.609406 128.768692,173.529144 129.168091,175.835754 
	C130.179901,177.514877 131.224686,178.807098 132.147781,179.948792 
	C130.856079,181.127899 129.401184,182.455978 127.461388,184.226700 
	C129.434250,185.099106 130.364197,185.899368 131.218155,185.825165 
	C136.997162,185.322998 138.911835,189.392242 140.745117,193.610748 
	C141.469894,195.278488 141.952927,197.085159 142.888702,198.619583 
	C144.402252,201.101364 145.715836,204.182144 147.992096,205.607010 
	C151.200058,207.615082 155.209625,208.342560 158.799667,209.590881 
	C159.250717,213.086792 159.582642,216.202881 160.066803,219.295151 
	C160.980072,225.127945 165.688492,229.158447 170.314270,228.149506 
	C172.152954,231.430328 173.648392,234.536057 175.313629,237.547913 
	C177.822800,242.086182 180.450607,246.558838 183.027985,251.059372 
	C181.613373,254.264603 180.198776,257.469849 178.514664,260.884064 
z"/>
<path fill="#2F95B2" opacity="1.000000" stroke="none" 
	d="
M328.028259,269.766266 
	C327.280853,269.597382 326.533417,269.428497 325.273071,268.851074 
	C323.111267,266.376648 321.451569,264.319244 319.815491,262.243225 
	C314.936096,256.051544 308.469513,251.764343 305.613922,243.117142 
	C303.205048,235.822601 294.957184,230.500031 289.467743,224.154129 
	C287.672394,222.078659 286.520355,219.460632 284.901642,217.215073 
	C282.620667,214.050827 280.590729,210.534042 277.715851,208.007187 
	C272.601959,203.512283 266.841339,199.747238 265.196655,192.487442 
	C264.559723,189.676056 262.765930,188.825882 259.969147,189.855438 
	C259.851410,189.714111 259.832947,189.346725 259.989624,188.979782 
	C260.717621,186.292770 261.288971,183.972687 262.120636,180.595627 
	C259.708496,182.723236 258.419800,183.859894 256.961395,184.682297 
	C252.619125,176.245651 248.446579,168.123276 244.646439,160.002014 
	C246.012573,160.002930 247.006317,160.002686 248.036774,160.348480 
	C250.049194,162.128464 252.024902,163.562393 254.000305,164.998169 
	C254.000000,165.000000 254.003662,164.999390 254.009735,165.392975 
	C254.677872,168.118179 255.094345,170.560715 256.081329,172.745560 
	C256.842072,174.429611 258.010925,176.532837 259.531952,177.164261 
	C265.736908,179.740158 269.772217,183.885223 272.119171,190.271545 
	C273.185974,193.174408 275.786316,195.631302 278.039093,197.952682 
	C281.286621,201.299072 285.239502,204.014801 288.199921,207.574722 
	C294.450409,215.091003 299.622681,223.605652 306.463135,230.493256 
	C310.915161,234.975967 313.329163,239.833389 315.409698,245.406006 
	C316.139435,247.360489 318.038116,249.598953 319.916412,250.269379 
	C325.590027,252.294464 326.260010,256.931824 326.989441,261.735291 
	C327.359863,264.174438 327.693817,266.619110 328.030945,269.237305 
	C328.017700,269.413330 328.028259,269.766266 328.028259,269.766266 
z"/>
<path fill="#2FA7B7" opacity="1.000000" stroke="none" 
	d="
M316.030060,209.941986 
	C320.529816,218.206314 325.029541,226.470627 329.809753,235.288269 
	C330.650146,236.686462 331.210083,237.531342 331.837158,238.712128 
	C337.285858,249.063950 342.667389,259.079865 347.589478,269.169006 
	C343.420135,269.216675 339.710205,269.191071 336.004211,268.778503 
	C335.665771,266.083252 335.326782,263.774567 334.980255,261.466949 
	C334.606293,258.976685 333.887329,256.482178 333.925873,253.998947 
	C333.985168,250.181519 333.717621,247.126419 329.829407,244.755600 
	C323.598938,240.956604 317.992432,236.361938 320.520386,227.506638 
	C320.711823,226.836044 319.288147,225.409515 318.324829,224.775986 
	C317.009369,223.910873 315.060974,223.824768 314.010498,222.776672 
	C311.453949,220.225952 309.262878,217.309570 306.916687,214.547211 
	C304.377136,211.557220 301.618591,208.726517 299.329651,205.556229 
	C295.147491,199.763748 292.531342,192.675125 284.481323,190.457352 
	C282.366089,189.874619 280.563568,187.398331 279.074402,185.443497 
	C274.611511,179.585098 270.561432,173.407227 266.004059,167.626968 
	C259.766663,159.715836 253.197861,152.066422 246.796448,144.283966 
	C243.171646,139.877121 239.597549,135.428558 236.245728,130.723343 
	C241.912903,129.841187 245.763794,132.669342 247.032684,137.744217 
	C247.609756,140.052261 248.553421,142.437851 249.948212,144.334122 
	C252.263657,147.482117 255.028107,150.309143 257.690430,153.190979 
	C266.275024,162.483246 274.634735,172.004745 283.595886,180.920502 
	C290.209412,187.500504 300.496582,190.331711 303.388306,200.770767 
	C303.884552,202.562241 305.310699,204.503296 306.867279,205.505188 
	C309.699951,207.328384 312.952637,208.499054 316.030060,209.941986 
z"/>
<path fill="#ECBC96" opacity="1.000000" stroke="none" 
	d="
M336.000305,269.165497 
	C339.710205,269.191071 343.420135,269.216675 347.721985,269.464722 
	C349.281891,270.246918 350.927643,271.463226 351.116486,271.268280 
	C354.161865,268.124298 357.054230,264.827972 359.874695,261.476532 
	C360.160339,261.137115 360.001556,259.997711 359.640594,259.604218 
	C354.505463,254.006210 355.036713,245.753815 348.996033,239.987991 
	C342.246460,233.545502 339.481720,232.018066 331.770050,238.376205 
	C331.210083,237.531342 330.650146,236.686462 330.056702,235.544937 
	C332.919006,233.690842 335.679596,231.766556 338.734436,230.640717 
	C350.672913,226.240875 363.016510,231.547928 368.647308,243.254929 
	C373.938232,254.255295 369.973450,268.658295 359.910187,274.994507 
	C348.863953,281.949646 336.811279,280.182861 328.091003,270.052795 
	C328.028259,269.766266 328.017700,269.413330 328.351135,269.322876 
	C329.122986,269.193756 329.561371,269.155121 330.424072,269.188416 
	C332.565704,269.228699 334.282990,269.197113 336.000305,269.165497 
z"/>
<path fill="#30437F" opacity="1.000000" stroke="none" 
	d="
M119.178162,128.925949 
	C120.432999,131.353531 121.687828,133.781113 122.724533,136.862946 
	C116.664566,137.654877 110.822723,137.792572 104.979874,137.562759 
	C103.680946,135.645645 102.662270,133.622665 101.021278,132.654572 
	C98.395523,131.105545 96.830322,129.396255 95.345490,126.494598 
	C93.199738,122.301369 89.793076,117.657387 85.734268,115.783501 
	C78.806274,112.584976 73.935631,107.710785 69.008141,102.322021 
	C65.843323,98.860947 62.958206,94.172714 56.717743,94.807861 
	C54.964169,90.781601 56.398254,88.205170 60.523598,88.065994 
	C66.373337,87.868637 72.356201,87.592560 76.144661,93.589043 
	C77.552055,95.816689 79.174011,97.962700 80.993469,99.863182 
	C83.577728,102.562523 86.120430,106.636253 89.235954,107.235115 
	C97.637245,108.849991 101.108452,114.923637 104.581757,121.263031 
	C107.886070,127.293968 112.676796,130.000885 119.178162,128.925949 
z"/>
<path fill="#2DAABA" opacity="1.000000" stroke="none" 
	d="
M315.988922,209.619202 
	C312.952637,208.499054 309.699951,207.328384 306.867279,205.505188 
	C305.310699,204.503296 303.884552,202.562241 303.388306,200.770767 
	C300.496582,190.331711 290.209412,187.500504 283.595886,180.920502 
	C274.634735,172.004745 266.275024,162.483246 257.690430,153.190979 
	C255.028107,150.309143 252.263657,147.482117 249.948212,144.334122 
	C248.553421,142.437851 247.609756,140.052261 247.032684,137.744217 
	C245.763794,132.669342 241.912903,129.841187 235.907623,130.756226 
	C233.878433,132.056870 232.432434,133.049179 230.726227,133.833801 
	C229.324692,131.750092 228.183395,129.874084 226.963089,127.648064 
	C223.548584,120.573753 220.213104,113.849442 216.912170,107.077896 
	C216.946732,107.030647 217.025726,106.944214 217.414185,106.964127 
	C223.102905,107.096664 228.205231,107.669121 231.322464,112.828888 
	C232.517105,114.806297 233.870758,116.709038 234.857010,118.785873 
	C236.312576,121.851028 238.053497,124.065750 241.475906,125.606766 
	C244.568573,126.999298 247.871460,129.865128 249.172867,132.899826 
	C252.062210,139.637314 255.560684,145.500900 261.892273,149.461182 
	C263.125427,150.232498 264.105316,151.476288 265.053711,152.624634 
	C272.835907,162.047440 280.562500,171.516251 288.368195,180.919449 
	C289.281738,182.019958 290.430389,183.210617 291.715302,183.663467 
	C295.410706,184.965820 299.231903,185.911255 303.005066,187.248322 
	C303.005493,187.667267 303.004456,187.834839 302.715454,188.276276 
	C302.695526,191.235748 299.420105,195.144211 305.003448,196.366180 
	C306.168304,201.586716 309.373352,204.463974 313.959290,206.008575 
	C314.622131,207.104507 315.284943,208.200455 315.988922,209.619202 
z"/>
<path fill="#324D84" opacity="1.000000" stroke="none" 
	d="
M119.133949,128.565857 
	C112.676796,130.000885 107.886070,127.293968 104.581757,121.263031 
	C101.108452,114.923637 97.637245,108.849991 89.235954,107.235115 
	C86.120430,106.636253 83.577728,102.562523 80.993469,99.863182 
	C79.174011,97.962700 77.552055,95.816689 76.144661,93.589043 
	C72.356201,87.592560 66.373337,87.868637 60.523598,88.065994 
	C56.398254,88.205170 54.964169,90.781601 56.717659,95.216431 
	C56.942665,96.636551 56.898750,97.452293 56.595806,98.109421 
	C55.890385,97.303810 55.443996,96.656815 54.945488,95.684692 
	C54.016338,93.874496 53.139301,92.389427 52.173588,90.560043 
	C51.197868,88.371788 50.310825,86.527863 49.070835,83.950256 
	C56.615543,83.950256 63.318600,83.950256 70.021652,83.950256 
	C75.800735,84.878342 81.579811,85.806427 87.722473,87.286316 
	C91.431190,95.387695 96.943893,100.306274 105.179062,101.920296 
	C109.815956,110.682121 114.452850,119.443954 119.133949,128.565857 
z"/>
<path fill="#3490B2" opacity="1.000000" stroke="none" 
	d="
M260.086884,189.996750 
	C262.765930,188.825882 264.559723,189.676056 265.196655,192.487442 
	C266.841339,199.747238 272.601959,203.512283 277.715851,208.007187 
	C280.590729,210.534042 282.620667,214.050827 284.901642,217.215073 
	C286.520355,219.460632 287.672394,222.078659 289.467743,224.154129 
	C294.957184,230.500031 303.205048,235.822601 305.613922,243.117142 
	C308.469513,251.764343 314.936096,256.051544 319.815491,262.243225 
	C321.451569,264.319244 323.111267,266.376648 324.896606,268.760010 
	C321.282990,268.845367 317.532928,268.613281 313.825073,268.164062 
	C314.233521,266.562958 315.200287,264.963806 314.802521,263.853485 
	C314.377014,262.665649 312.644501,261.131775 311.518921,261.160858 
	C308.070343,261.249939 305.900452,259.979675 304.313568,256.974640 
	C301.887482,252.380402 299.463776,247.750992 296.582336,243.441910 
	C294.270203,239.984238 291.223541,237.025330 288.605255,233.762878 
	C285.522858,229.922089 282.513580,226.020905 279.542328,222.093170 
	C276.870270,218.560974 274.639984,214.617584 271.573456,211.483002 
	C268.633148,208.477448 264.746277,206.423798 261.493622,203.692017 
	C256.156769,199.209763 256.231201,199.121140 260.272949,193.714325 
	C260.391083,192.362350 260.238983,191.179550 260.086884,189.996750 
z"/>
<path fill="#2DBCBE" opacity="1.000000" stroke="none" 
	d="
M225.847290,87.659134 
	C226.303970,87.403046 226.760666,87.146950 227.812607,87.038727 
	C229.611053,88.291763 230.643127,89.737724 232.047226,90.442726 
	C237.924316,93.393593 241.816620,98.006516 245.027725,103.681938 
	C247.206329,107.532516 249.292404,111.828056 254.592148,113.043091 
	C262.106689,114.765892 263.071655,116.788010 264.184540,124.599899 
	C264.623444,127.680817 266.802185,130.706284 268.756989,133.334259 
	C271.775787,137.392578 275.226013,141.138657 278.607910,144.914474 
	C280.234894,146.730972 282.123871,148.312820 283.894196,150.000916 
	C288.524292,158.439011 293.154388,166.877121 297.481995,175.653259 
	C290.189301,173.163635 288.372070,167.035721 287.477631,162.748810 
	C282.102142,157.173599 277.913910,152.906189 273.818268,148.551682 
	C271.572937,146.164413 269.425293,143.678574 267.337738,141.151154 
	C264.011871,137.124527 260.788849,133.013123 257.492371,128.961975 
	C254.644592,125.462219 251.904709,121.857712 248.842163,118.554443 
	C245.743362,115.212090 241.733292,112.588783 239.142426,108.928513 
	C234.319855,102.115379 230.237671,94.778183 225.847290,87.659134 
z"/>
<path fill="#2EB5BE" opacity="1.000000" stroke="none" 
	d="
M225.505997,87.751465 
	C230.237671,94.778183 234.319855,102.115379 239.142426,108.928513 
	C241.733292,112.588783 245.743362,115.212090 248.842163,118.554443 
	C251.904709,121.857712 254.644592,125.462219 257.492371,128.961975 
	C260.788849,133.013123 264.011871,137.124527 267.337738,141.151154 
	C269.425293,143.678574 271.572937,146.164413 273.818268,148.551682 
	C277.913910,152.906189 282.102142,157.173599 287.477631,162.748810 
	C288.372070,167.035721 290.189301,173.163635 297.539825,175.996902 
	C298.591431,177.112518 299.282715,178.222504 299.625488,179.657318 
	C294.229553,179.187195 289.971252,177.458801 288.985596,171.616241 
	C288.859619,170.869400 288.329498,170.092682 287.781006,169.530334 
	C282.302277,163.913177 276.728607,158.387772 271.296509,152.726303 
	C269.165039,150.504807 267.787598,147.091080 265.260590,145.807938 
	C258.378632,142.313431 254.945007,136.691055 253.380524,129.611618 
	C252.303085,124.735977 248.968414,122.599472 244.677917,120.995621 
	C242.658813,120.240845 240.624039,118.867264 239.240631,117.229782 
	C237.235840,114.856827 235.757996,112.024368 234.157028,109.327553 
	C230.628296,103.383522 221.763000,102.126701 217.025726,106.944214 
	C217.025726,106.944214 216.946732,107.030647 216.664017,106.881691 
	C215.606506,105.514473 214.831711,104.296211 214.056915,103.077950 
	C216.099854,96.789787 218.801361,90.981812 225.505997,87.751465 
z"/>
<path fill="#30397A" opacity="1.000000" stroke="none" 
	d="
M56.854836,98.268044 
	C56.898750,97.452293 56.942665,96.636551 56.986664,95.412231 
	C62.958206,94.172714 65.843323,98.860947 69.008141,102.322021 
	C73.935631,107.710785 78.806274,112.584976 85.734268,115.783501 
	C89.793076,117.657387 93.199738,122.301369 95.345490,126.494598 
	C96.830322,129.396255 98.395523,131.105545 101.021278,132.654572 
	C102.662270,133.622665 103.680946,135.645645 104.552292,137.581131 
	C102.128021,137.959106 100.130333,137.951218 97.926895,137.639038 
	C95.261681,134.701797 93.198807,135.372559 91.035461,137.965485 
	C88.159950,136.507477 85.598152,135.237549 83.122002,133.818192 
	C82.334061,133.366531 81.403236,132.626740 81.169144,131.832657 
	C79.537025,126.296234 75.664017,123.659348 70.188896,122.935638 
	C70.188896,122.935638 70.014580,122.872131 69.994232,122.549767 
	C69.712379,121.831856 69.450890,121.436310 69.189392,121.040764 
	C68.707870,120.339058 68.226349,119.637352 67.429916,118.404663 
	C65.821228,115.884796 64.527451,113.895912 63.183331,111.540924 
	C61.040276,106.872566 58.947556,102.570305 56.854836,98.268044 
z"/>
<path fill="#3075A4" opacity="1.000000" stroke="none" 
	d="
M267.958862,230.225281 
	C261.607361,230.316818 255.255829,230.408356 248.439255,230.039017 
	C243.460678,224.043671 239.261642,218.199585 234.273239,213.132614 
	C232.374329,211.203796 228.662750,211.059525 225.777298,210.101929 
	C218.665588,210.119934 211.553864,210.137939 203.519867,210.091782 
	C199.753693,209.991028 196.909790,209.954422 194.015808,209.610641 
	C194.001587,208.890274 194.037445,208.477066 194.537170,208.051132 
	C198.583176,207.969116 202.165314,207.899857 206.160614,207.735748 
	C210.218140,207.666840 213.954529,207.184219 217.487915,207.823502 
	C225.066208,209.194626 229.836288,206.569626 231.719910,199.104355 
	C233.009872,193.991928 236.284332,192.736130 240.966492,194.216629 
	C239.995209,195.872574 239.056824,197.166077 237.793076,198.908051 
	C239.996643,201.002228 242.263321,203.103210 244.469772,205.265640 
	C247.880768,208.608566 251.224045,212.020767 254.645538,215.352753 
	C257.910004,218.531815 261.354279,221.535400 264.485870,224.837723 
	C265.930664,226.361313 266.818481,228.413025 267.958862,230.225281 
z"/>
<path fill="#3087B0" opacity="1.000000" stroke="none" 
	d="
M260.002686,193.883514 
	C256.231201,199.121140 256.156769,199.209763 261.493622,203.692017 
	C264.746277,206.423798 268.633148,208.477448 271.573456,211.483002 
	C274.639984,214.617584 276.870270,218.560974 279.542328,222.093170 
	C282.513580,226.020905 285.522858,229.922089 288.605255,233.762878 
	C291.223541,237.025330 294.270203,239.984238 296.582336,243.441910 
	C299.463776,247.750992 301.887482,252.380402 304.313568,256.974640 
	C305.900452,259.979675 308.070343,261.249939 311.518921,261.160858 
	C312.644501,261.131775 314.377014,262.665649 314.802521,263.853485 
	C315.200287,264.963806 314.233521,266.562958 313.515991,267.950134 
	C312.617554,267.889313 312.070374,267.825317 311.041687,267.460358 
	C310.371429,267.065399 310.171600,267.019287 309.960693,267.021057 
	C302.249786,265.016266 296.954559,259.865753 293.068329,253.309128 
	C289.695190,247.618179 286.662445,241.687439 283.973450,235.642838 
	C282.276215,231.827621 280.047729,229.840973 275.414246,229.986938 
	C274.699371,223.348282 271.867096,218.963028 266.339508,216.104828 
	C257.000763,211.275925 253.303757,201.429688 247.460846,193.798523 
	C251.944946,193.764633 255.973816,193.824081 260.002686,193.883514 
z"/>
<path fill="#2EC5C2" opacity="1.000000" stroke="none" 
	d="
M283.852661,149.654510 
	C282.123871,148.312820 280.234894,146.730972 278.607910,144.914474 
	C275.226013,141.138657 271.775787,137.392578 268.756989,133.334259 
	C266.802185,130.706284 264.623444,127.680817 264.184540,124.599899 
	C263.071655,116.788010 262.106689,114.765892 254.592148,113.043091 
	C249.292404,111.828056 247.206329,107.532516 245.027725,103.681938 
	C241.816620,98.006516 237.924316,93.393593 232.047226,90.442726 
	C230.643127,89.737724 229.611053,88.291763 228.082306,87.027290 
	C238.810120,82.080734 250.176849,86.268799 256.236450,97.497681 
	C262.141693,108.440559 267.919708,119.452087 273.757629,130.431305 
	C277.104584,136.725800 280.459717,143.015991 283.852661,149.654510 
z"/>
<path fill="#2EB1BB" opacity="1.000000" stroke="none" 
	d="
M217.414185,106.964127 
	C221.763000,102.126701 230.628296,103.383522 234.157028,109.327553 
	C235.757996,112.024368 237.235840,114.856827 239.240631,117.229782 
	C240.624039,118.867264 242.658813,120.240845 244.677917,120.995621 
	C248.968414,122.599472 252.303085,124.735977 253.380524,129.611618 
	C254.945007,136.691055 258.378632,142.313431 265.260590,145.807938 
	C267.787598,147.091080 269.165039,150.504807 271.296509,152.726303 
	C276.728607,158.387772 282.302277,163.913177 287.781006,169.530334 
	C288.329498,170.092682 288.859619,170.869400 288.985596,171.616241 
	C289.971252,177.458801 294.229553,179.187195 299.665375,179.982834 
	C301.057190,181.619644 302.060577,183.255768 303.067627,185.577301 
	C303.048737,186.507462 303.026184,186.752213 303.003662,186.996948 
	C299.231903,185.911255 295.410706,184.965820 291.715302,183.663467 
	C290.430389,183.210617 289.281738,182.019958 288.368195,180.919449 
	C280.562500,171.516251 272.835907,162.047440 265.053711,152.624634 
	C264.105316,151.476288 263.125427,150.232498 261.892273,149.461182 
	C255.560684,145.500900 252.062210,139.637314 249.172867,132.899826 
	C247.871460,129.865128 244.568573,126.999298 241.475906,125.606766 
	C238.053497,124.065750 236.312576,121.851028 234.857010,118.785873 
	C233.870758,116.709038 232.517105,114.806297 231.322464,112.828888 
	C228.205231,107.669121 223.102905,107.096664 217.414185,106.964127 
z"/>
<path fill="#F2B990" opacity="1.000000" stroke="none" 
	d="
M63.233665,111.907028 
	C64.527451,113.895912 65.821228,115.884796 67.200554,118.179688 
	C55.967766,124.615456 45.234806,124.537720 35.184689,114.769051 
	C35.715542,108.517456 35.978138,102.871262 37.225315,97.451653 
	C38.530796,91.778671 38.714035,86.784760 33.829052,82.734146 
	C34.992432,81.495331 36.155811,80.256516 37.720428,79.333344 
	C45.843674,80.077019 44.878674,86.926155 46.360355,91.577156 
	C48.699604,91.310493 50.480934,91.107430 52.262264,90.904366 
	C53.139301,92.389427 54.016338,93.874496 54.735565,95.933220 
	C51.704430,95.773743 48.834084,93.779228 45.997337,96.669533 
	C42.657059,100.072861 43.690083,109.017731 47.564308,111.803154 
	C52.843697,115.598839 58.003738,113.562065 63.233665,111.907028 
z"/>
<path fill="#2EC5C2" opacity="1.000000" stroke="none" 
	d="
M325.052155,121.994865 
	C325.003693,114.903877 324.702759,107.801682 325.016907,100.726791 
	C325.166260,97.362938 323.858734,95.593605 321.222656,94.087624 
	C317.935516,92.209663 314.758850,90.138306 311.281799,87.526459 
	C311.025177,83.240562 311.021240,79.578644 311.017334,75.916733 
	C318.651733,80.409729 326.355957,84.791962 333.847534,89.511665 
	C335.010040,90.244041 335.717834,92.508652 335.752136,94.083946 
	C335.918793,101.734383 335.784515,109.391380 335.284271,117.511040 
	C333.236694,118.597084 331.653809,119.199104 330.088745,119.844353 
	C328.401154,120.540100 326.730316,121.276314 325.052155,121.994865 
M329.097565,94.732483 
	C329.042694,94.232681 328.987823,93.732887 328.932922,93.233093 
	C328.485657,93.348335 328.038361,93.463577 327.591095,93.578835 
	C327.893677,94.005440 328.196289,94.432037 329.097565,94.732483 
z"/>
<path fill="#359AB3" opacity="1.000000" stroke="none" 
	d="
M243.786835,47.101112 
	C231.712646,39.785824 219.638443,32.470528 207.202179,24.939993 
	C206.840118,24.724752 206.816101,24.418104 206.963531,24.057232 
	C207.403412,20.202438 207.695892,16.708519 207.988373,13.214602 
	C220.212875,20.585863 232.437393,27.957121 244.840485,36.030594 
	C246.184799,39.553379 247.350525,42.373947 248.671585,45.570366 
	C247.141159,46.049957 245.464005,46.575535 243.786835,47.101112 
z"/>
<path fill="#33A8B9" opacity="1.000000" stroke="none" 
	d="
M244.004532,47.366150 
	C245.464005,46.575535 247.141159,46.049957 248.671585,45.570366 
	C247.350525,42.373947 246.184799,39.553379 245.031479,36.304382 
	C257.585999,43.357975 270.128082,50.840000 282.681885,58.884209 
	C281.147278,62.249516 279.600952,65.052635 278.054626,67.855759 
	C266.777161,61.114243 255.499695,54.372715 244.004532,47.366150 
z"/>
<path fill="#2F2E75" opacity="1.000000" stroke="none" 
	d="
M70.250946,123.279434 
	C75.664017,123.659348 79.537025,126.296234 81.169144,131.832657 
	C81.403236,132.626740 82.334061,133.366531 83.122002,133.818192 
	C85.598152,135.237549 88.159950,136.507477 91.063995,138.256348 
	C91.427971,139.066803 91.416550,139.456161 91.119141,139.992706 
	C91.252831,140.740784 91.672493,141.341705 92.052353,141.964050 
	C92.012558,141.985474 92.057449,141.907013 92.074356,142.272659 
	C95.352798,144.426178 98.444214,146.768372 101.926460,147.837082 
	C105.051537,148.796173 108.072693,149.134674 108.662979,152.968262 
	C105.099205,154.086334 104.970734,156.302094 105.639175,158.997833 
	C102.041557,159.191681 97.745804,160.720520 95.944939,159.231659 
	C93.305435,157.049438 91.258804,158.067749 88.889000,158.039154 
	C86.945610,154.607925 85.002220,151.176712 83.263397,147.256866 
	C84.752167,144.902145 86.036362,143.036041 87.320564,141.169937 
	C86.913475,140.831604 86.506393,140.493271 86.099312,140.154953 
	C84.366295,141.170288 82.633278,142.185623 80.900269,143.200958 
	C77.371170,136.675049 73.842079,130.149139 70.250946,123.279434 
z"/>
<path fill="#358DAD" opacity="1.000000" stroke="none" 
	d="
M207.729370,12.983279 
	C207.695892,16.708519 207.403412,20.202438 206.773346,24.037479 
	C206.435730,24.378599 206.054550,24.411037 206.054550,24.411037 
	C205.663513,24.150124 205.272461,23.889210 204.307098,23.283154 
	C200.095474,19.883156 196.448608,18.510250 192.769058,22.875572 
	C188.160385,25.580374 183.551712,28.285173 178.298111,30.871153 
	C175.680099,28.118628 173.707016,25.484922 171.733917,22.851219 
	C179.614975,18.015888 187.416290,13.040075 195.452744,8.478493 
	C196.851044,7.684797 199.409241,8.213014 201.132202,8.891389 
	C203.400040,9.784289 205.371490,11.429957 207.729370,12.983279 
z"/>
<path fill="#32B8C0" opacity="1.000000" stroke="none" 
	d="
M278.272614,68.115540 
	C279.600952,65.052635 281.147278,62.249516 282.884796,59.151562 
	C292.254425,64.366554 301.432861,69.876373 310.814331,75.651459 
	C311.021240,79.578644 311.025177,83.240562 311.018433,87.289291 
	C300.168701,81.242500 289.329651,74.808914 278.272614,68.115540 
z"/>
<path fill="#2E81AA" opacity="1.000000" stroke="none" 
	d="
M247.005600,193.891876 
	C253.303757,201.429688 257.000763,211.275925 266.339508,216.104828 
	C271.867096,218.963028 274.699371,223.348282 275.007629,229.835083 
	C272.943604,230.303360 270.872711,230.418106 268.380371,230.379074 
	C266.818481,228.413025 265.930664,226.361313 264.485870,224.837723 
	C261.354279,221.535400 257.910004,218.531815 254.645538,215.352753 
	C251.224045,212.020767 247.880768,208.608566 244.469772,205.265640 
	C242.263321,203.103210 239.996643,201.002228 237.793076,198.908051 
	C239.056824,197.166077 239.995209,195.872574 241.389069,194.126984 
	C243.564896,193.747223 245.285248,193.819550 247.005600,193.891876 
z"/>
<path fill="#F6F8F7" opacity="1.000000" stroke="none" 
	d="
M183.987595,137.849716 
	C183.498642,133.249191 181.735809,130.351746 176.408142,129.769241 
	C170.048859,129.073898 168.769165,126.987114 170.068634,121.427765 
	C173.091888,122.594444 175.552460,123.780525 178.373703,125.038284 
	C180.863251,123.144188 182.992126,121.178421 185.579605,119.189857 
	C192.314911,119.131287 198.591644,119.095505 204.876282,119.410492 
	C203.548599,122.498940 202.212997,125.236626 200.574921,128.123032 
	C199.188065,128.504120 198.103683,128.736481 196.650299,128.877411 
	C195.231201,128.339981 194.201324,127.594055 193.126068,127.521545 
	C191.683777,127.424301 190.077759,127.578644 188.809479,128.184662 
	C188.324539,128.416382 188.213348,130.964493 188.559662,131.128128 
	C189.851898,131.738632 191.425919,132.087814 192.853302,131.982178 
	C194.258667,131.878143 195.614426,131.103485 197.294937,130.714844 
	C198.012177,130.882950 198.426407,130.959305 198.696442,131.341980 
	C197.572830,133.742126 196.593445,135.835968 195.177582,137.946091 
	C191.156616,137.924820 187.572098,137.887268 183.987595,137.849716 
z"/>
<path fill="#347BA6" opacity="1.000000" stroke="none" 
	d="
M171.399658,22.934141 
	C173.707016,25.484922 175.680099,28.118628 177.962128,30.934851 
	C170.330261,36.005527 162.389450,40.893684 153.763947,45.808899 
	C150.716293,41.019073 145.498352,42.716270 141.819748,40.901215 
	C151.568298,34.939831 161.316849,28.978449 171.399658,22.934141 
z"/>
<path fill="#37BCC6" opacity="1.000000" stroke="none" 
	d="
M335.474213,139.897369 
	C335.474213,152.509415 335.474213,165.121460 335.474213,178.793320 
	C331.920868,176.131516 329.203064,174.095627 326.144348,171.711670 
	C325.684052,171.217133 325.536194,171.110046 325.359802,171.042343 
	C325.228790,163.006622 325.097778,154.970886 325.384705,146.428604 
	C329.026520,143.913818 332.250366,141.905594 335.474213,139.897369 
z"/>
<path fill="#344085" opacity="1.000000" stroke="none" 
	d="
M232.012314,320.023926 
	C223.951126,324.728088 215.889954,329.432281 207.404816,333.790100 
	C205.608780,330.817200 204.236710,328.190643 202.864639,325.564087 
	C209.229996,321.708679 215.595352,317.853241 222.733948,313.968811 
	C227.916763,313.766785 231.685532,314.489563 232.012314,320.023926 
z"/>
<path fill="#3E588E" opacity="1.000000" stroke="none" 
	d="
M187.703888,242.109985 
	C194.495132,242.177200 201.289948,242.381470 208.074844,242.204971 
	C209.571655,242.166031 211.333374,241.077820 212.455658,239.955399 
	C215.992493,236.418106 221.326248,236.006653 224.395157,239.318619 
	C227.190002,242.334808 226.907547,247.424377 223.801071,250.022827 
	C220.056137,253.155334 215.325043,252.188736 212.096481,248.113586 
	C210.998413,246.727615 208.874756,245.475586 207.153824,245.382614 
	C200.705017,245.034180 194.228943,245.190445 187.384918,244.732880 
	C187.239120,243.575485 187.471497,242.842728 187.703888,242.109985 
z"/>
<path fill="#3A5D9A" opacity="1.000000" stroke="none" 
	d="
M242.864532,301.929932 
	C250.201782,297.415710 257.531311,292.888824 264.887360,288.405457 
	C265.691071,287.915588 266.647400,287.676117 267.579620,287.301758 
	C267.726746,287.905121 267.816895,288.206970 267.873047,288.515015 
	C269.217102,295.892120 267.144897,301.232147 259.566223,304.066254 
	C256.041504,305.384308 252.945633,307.849121 249.155533,309.552643 
	C246.725311,306.850769 244.794937,304.390350 242.864532,301.929932 
z"/>
<path fill="#F0BC98" opacity="1.000000" stroke="none" 
	d="
M52.173588,90.560043 
	C50.480934,91.107430 48.699604,91.310493 46.360355,91.577156 
	C44.878674,86.926155 45.843674,80.077019 38.043167,79.260818 
	C46.345615,71.342628 58.566467,73.254082 66.225891,79.792206 
	C67.486588,80.868340 68.562737,82.160675 69.872917,83.651672 
	C63.318600,83.950256 56.615543,83.950256 49.070835,83.950256 
	C50.310825,86.527863 51.197868,88.371788 52.173588,90.560043 
z"/>
<path fill="#3FC7C8" opacity="1.000000" stroke="none" 
	d="
M335.549316,139.500061 
	C332.250366,141.905594 329.026520,143.913818 325.460510,145.965881 
	C325.039246,138.313171 324.960114,130.616623 324.966583,122.457458 
	C326.730316,121.276314 328.401154,120.540100 330.088745,119.844353 
	C331.653809,119.199104 333.236694,118.597084 335.185059,117.966080 
	C335.580383,125.005013 335.602386,132.053894 335.549316,139.500061 
z"/>
<path fill="#316299" opacity="1.000000" stroke="none" 
	d="
M238.951630,230.244232 
	C231.746933,230.244232 224.542236,230.244232 216.560791,230.244232 
	C219.751541,223.850586 222.605026,218.132767 225.937088,212.468109 
	C230.594330,218.428909 234.772980,224.336563 238.951630,230.244232 
z"/>
<path fill="#F0BC98" opacity="1.000000" stroke="none" 
	d="
M33.544075,82.934235 
	C38.714035,86.784760 38.530796,91.778671 37.225315,97.451653 
	C35.978138,102.871262 35.715542,108.517456 35.034763,114.461929 
	C26.205935,106.220413 25.441980,92.682304 33.544075,82.934235 
z"/>
<path fill="#344F89" opacity="1.000000" stroke="none" 
	d="
M242.526321,302.004395 
	C244.794937,304.390350 246.725311,306.850769 248.811447,309.608673 
	C243.547546,313.247223 238.127899,316.588287 232.360291,319.976624 
	C231.685532,314.489563 227.916763,313.766785 223.067871,313.899902 
	C229.148376,309.932983 235.668243,306.005890 242.526321,302.004395 
z"/>
<path fill="#212141" opacity="1.000000" stroke="none" 
	d="
M187.780945,241.838715 
	C187.471497,242.842728 187.239120,243.575485 186.988617,244.619675 
	C185.832245,246.832794 184.693985,248.734497 183.291840,250.847778 
	C180.450607,246.558838 177.822800,242.086182 175.313629,237.547913 
	C173.648392,234.536057 172.152954,231.430328 170.163330,227.835373 
	C169.152954,225.536438 168.560760,223.768753 168.350067,222.005936 
	C173.052353,222.905289 176.585236,224.539047 177.214935,229.682922 
	C177.321838,230.556244 178.988174,231.238678 180.146469,232.271667 
	C181.225006,232.757019 182.091141,232.980026 182.973541,233.557220 
	C184.608902,236.275452 186.227982,238.639526 187.847061,241.003586 
	C187.850708,241.191544 187.854340,241.379501 187.780945,241.838715 
z"/>
<path fill="#30397A" opacity="1.000000" stroke="none" 
	d="
M199.046387,219.002487 
	C197.292999,222.283279 195.539612,225.564087 193.131775,228.808350 
	C188.652969,226.847244 184.828629,224.922699 180.820984,222.740295 
	C179.419159,221.327896 178.200653,220.173386 176.982239,218.625381 
	C175.810486,215.014572 175.778488,211.987488 178.615814,209.545624 
	C178.777420,209.678955 179.067551,209.981323 179.042160,210.350006 
	C180.502274,215.946426 184.501297,216.508896 189.271484,216.359970 
	C191.752502,216.778015 194.013626,216.773361 196.196320,217.184769 
	C197.224045,217.378464 198.101074,218.371613 199.046387,219.002487 
z"/>
<path fill="#184F5E" opacity="1.000000" stroke="none" 
	d="
M213.832230,103.332382 
	C214.831711,104.296211 215.606506,105.514473 216.629456,106.928940 
	C220.213104,113.849442 223.548584,120.573753 226.580597,127.644806 
	C222.800156,127.214073 220.112595,125.933052 218.219803,122.280907 
	C217.132370,120.182655 213.440262,119.434319 210.525055,118.049469 
	C208.818436,117.928391 207.507416,117.836143 206.225708,117.549927 
	C206.322861,117.091660 206.302200,116.834488 206.193024,116.584419 
	C208.664536,112.251892 211.136047,107.919357 213.832230,103.332382 
z"/>
<path fill="#F4B181" opacity="1.000000" stroke="none" 
	d="
M153.772400,137.327072 
	C158.190491,129.896149 164.076889,129.965073 168.970825,138.151764 
	C169.141678,139.493805 169.172287,140.187485 169.003967,141.181915 
	C167.184616,144.934296 164.220123,147.512970 160.732208,146.531433 
	C158.063034,145.780273 156.079330,142.593323 153.809341,140.171387 
	C153.809433,139.011017 153.790924,138.169037 153.772400,137.327072 
z"/>
<path fill="#356CA0" opacity="1.000000" stroke="none" 
	d="
M239.385284,230.394226 
	C234.772980,224.336563 230.594330,218.428909 226.202209,212.249023 
	C225.948517,211.559311 225.908279,211.141815 225.822662,210.413116 
	C228.662750,211.059525 232.374329,211.203796 234.273239,213.132614 
	C239.261642,218.199585 243.460678,224.043671 247.997955,229.889282 
	C245.287445,230.315033 242.553207,230.429626 239.385284,230.394226 
z"/>
<path fill="#302872" opacity="1.000000" stroke="none" 
	d="
M101.503799,182.314850 
	C106.068382,180.866623 110.722290,179.738876 114.766319,178.758911 
	C115.847702,182.580704 116.923737,186.383575 117.999588,190.593231 
	C114.921562,192.004059 111.843735,193.008102 108.337921,194.020721 
	C105.804329,190.231308 103.698723,186.433319 101.503799,182.314850 
z"/>
<path fill="#302872" opacity="1.000000" stroke="none" 
	d="
M205.010605,336.019897 
	C200.826950,340.039703 196.579163,341.182404 191.770859,336.818878 
	C190.249023,335.437805 188.094543,334.753815 186.279373,333.142273 
	C187.944077,329.848694 189.558990,327.163635 191.173920,324.478546 
	C193.211899,325.907898 195.249878,327.337219 197.802185,329.108246 
	C200.547852,331.639923 202.779236,333.829895 205.010605,336.019897 
z"/>
<path fill="#356CA0" opacity="1.000000" stroke="none" 
	d="
M141.483093,40.964027 
	C145.498352,42.716270 150.716293,41.019073 153.412567,45.881779 
	C149.103088,48.654129 144.460312,51.380661 139.245361,53.821999 
	C136.997314,50.956928 135.321457,48.377052 133.645599,45.797173 
	C136.145874,44.207062 138.646164,42.616951 141.483093,40.964027 
z"/>
<path fill="#3A5D9A" opacity="1.000000" stroke="none" 
	d="
M185.121017,119.212646 
	C182.992126,121.178421 180.863251,123.144188 178.307953,124.690521 
	C177.009735,123.084007 175.148819,121.188805 175.415283,120.816597 
	C179.105103,115.662445 175.980820,113.987000 171.624176,112.794586 
	C176.605286,108.073410 181.428192,108.972839 185.068680,115.903198 
	C185.175644,117.423920 185.148331,118.318283 185.121017,119.212646 
z"/>
<path fill="#316299" opacity="1.000000" stroke="none" 
	d="
M133.303009,45.882248 
	C135.321457,48.377052 136.997314,50.956928 138.875671,53.845322 
	C135.723068,56.551857 132.367981,58.949883 128.806168,61.495651 
	C126.372467,52.271713 127.209702,49.425045 133.303009,45.882248 
z"/>
<path fill="#302872" opacity="1.000000" stroke="none" 
	d="
M88.897850,158.405991 
	C91.258804,158.067749 93.305435,157.049438 95.944939,159.231659 
	C97.745804,160.720520 102.041557,159.191681 105.856934,159.063141 
	C106.796822,159.237381 106.991325,159.457840 107.075569,159.775574 
	C105.414642,169.835144 100.014977,163.817642 95.641983,161.660492 
	C95.861122,165.115677 96.031891,167.808136 96.053238,170.854828 
	C93.571449,167.063644 91.239075,162.918243 88.897850,158.405991 
z"/>
<path fill="#33A8B9" opacity="1.000000" stroke="none" 
	d="
M169.202896,140.881165 
	C169.172287,140.187485 169.141678,139.493805 169.164429,138.454163 
	C173.834534,138.070572 178.451294,138.032944 183.527817,137.922516 
	C187.572098,137.887268 191.156616,137.924820 195.645996,137.974503 
	C198.995132,138.000565 201.439392,138.014526 203.906281,138.362396 
	C203.929153,139.143311 203.929413,139.590302 203.491211,140.034836 
	C199.990067,140.358688 196.927414,140.684998 193.408661,140.950546 
	C185.036011,140.886917 177.119461,140.884033 169.202896,140.881165 
z"/>
<path fill="#3E588E" opacity="1.000000" stroke="none" 
	d="
M105.120316,101.574768 
	C96.943893,100.306274 91.431190,95.387695 88.038712,87.493134 
	C95.386208,89.775185 100.955414,94.615395 105.120316,101.574768 
z"/>
<path fill="#324D84" opacity="1.000000" stroke="none" 
	d="
M182.957275,233.203033 
	C182.091141,232.980026 181.225006,232.757019 180.362152,232.011047 
	C181.233627,231.314087 182.101822,231.140106 183.417175,230.978882 
	C186.901108,230.683990 189.937912,230.376343 192.974716,230.068680 
	C195.960434,229.762253 198.940903,229.365677 201.934311,229.190887 
	C203.251251,229.114014 204.876831,229.105499 205.820358,229.801056 
	C206.389526,230.220642 206.396790,232.588943 205.799316,233.123489 
	C204.925858,233.904984 203.283768,234.062485 201.967545,234.068054 
	C198.589828,234.082336 195.211121,233.866379 191.213715,233.640259 
	C188.705353,233.395279 186.816101,233.252502 184.597626,233.099030 
	C183.831375,233.126556 183.394333,233.164795 182.957275,233.203033 
z"/>
<path fill="#344F89" opacity="1.000000" stroke="none" 
	d="
M199.317810,218.795105 
	C198.101074,218.371613 197.224045,217.378464 196.196320,217.184769 
	C194.013626,216.773361 191.752502,216.778015 189.510330,216.127762 
	C190.714722,214.116257 191.932327,212.589081 193.342636,210.908020 
	C193.704010,210.470169 193.880859,210.191391 194.065903,209.917816 
	C196.909790,209.954422 199.753693,209.991028 203.089523,210.048462 
	C202.250717,212.908768 200.919968,215.748245 199.317810,218.795105 
z"/>
<path fill="#32B8C0" opacity="1.000000" stroke="none" 
	d="
M303.005066,187.248322 
	C303.026184,186.752213 303.048737,186.507462 303.124573,185.896652 
	C306.750549,192.117569 310.323273,198.704559 313.927643,205.650055 
	C309.373352,204.463974 306.168304,201.586716 305.005798,195.969574 
	C304.335999,192.803696 303.669739,190.403046 303.003448,188.002411 
	C303.004456,187.834839 303.005493,187.667267 303.005066,187.248322 
z"/>
<path fill="#344F89" opacity="1.000000" stroke="none" 
	d="
M171.344223,113.047668 
	C175.980820,113.987000 179.105103,115.662445 175.415283,120.816597 
	C175.148819,121.188805 177.009735,123.084007 177.947296,124.618851 
	C175.552460,123.780525 173.091888,122.594444 170.361145,121.189995 
	C170.415421,118.414673 170.739853,115.857719 171.344223,113.047668 
z"/>
<path fill="#3B7EA6" opacity="1.000000" stroke="none" 
	d="
M185.579605,119.189857 
	C185.148331,118.318283 185.175644,117.423920 185.126419,116.259827 
	C191.790298,116.083015 198.530716,116.175949 205.732086,116.426651 
	C206.302200,116.834488 206.322861,117.091660 206.064514,117.830887 
	C205.538788,118.557121 205.203583,118.808418 204.868362,119.059723 
	C198.591644,119.095505 192.314911,119.131287 185.579605,119.189857 
z"/>
<path fill="#2B3669" opacity="1.000000" stroke="none" 
	d="
M193.002289,229.812988 
	C189.937912,230.376343 186.901108,230.683990 183.418747,230.602081 
	C182.316895,227.807739 181.660583,225.402954 181.004272,222.998169 
	C184.828629,224.922699 188.652969,226.847244 192.803085,228.912170 
	C193.095856,229.220795 193.062866,229.389038 193.002289,229.812988 
z"/>
<path fill="#3A5D9A" opacity="1.000000" stroke="none" 
	d="
M98.132637,137.943344 
	C100.130333,137.951218 102.128021,137.959106 104.553299,137.948624 
	C110.822723,137.792572 116.664566,137.654877 122.797501,137.205078 
	C123.599472,137.091263 124.110367,137.289536 124.824295,138.019104 
	C125.022194,139.044037 125.017044,139.537720 124.544449,140.020172 
	C119.380180,140.025177 114.683357,140.041412 109.528671,140.043793 
	C105.429527,140.038498 101.788254,140.047043 98.105423,139.704819 
	C98.086792,138.883804 98.109718,138.413574 98.132637,137.943344 
z"/>
<path fill="#393179" opacity="1.000000" stroke="none" 
	d="
M190.977081,324.243774 
	C189.558990,327.163635 187.944077,329.848694 186.131897,332.828796 
	C183.992661,331.982819 182.050690,330.841888 179.918259,329.421265 
	C181.821594,328.404785 183.915375,327.667938 186.837341,326.639648 
	C186.865112,326.006348 186.934738,324.419403 187.006989,322.412109 
	C188.266510,322.664124 189.523392,323.336548 190.977081,324.243774 
z"/>
<path fill="#316299" opacity="1.000000" stroke="none" 
	d="
M125.011894,140.031387 
	C125.017044,139.537720 125.022194,139.044037 125.046753,138.180542 
	C131.814911,137.732712 138.563660,137.654739 145.776459,138.012421 
	C146.159042,138.988464 146.077606,139.528824 145.528870,140.095749 
	C138.784821,140.107071 132.508041,140.091827 125.925873,140.080246 
	C125.417618,140.066376 125.214752,140.048874 125.011894,140.031387 
z"/>
<path fill="#393179" opacity="1.000000" stroke="none" 
	d="
M205.316315,335.993835 
	C202.779236,333.829895 200.547852,331.639923 198.134048,329.164978 
	C199.376816,327.855988 200.802002,326.831940 202.545914,325.685974 
	C204.236710,328.190643 205.608780,330.817200 207.030396,333.812561 
	C206.593964,334.776825 206.107986,335.372284 205.316315,335.993835 
z"/>
<path fill="#F6F8F7" opacity="1.000000" stroke="none" 
	d="
M193.138214,23.040592 
	C196.448608,18.510250 200.095474,19.883156 203.979630,23.149971 
	C200.597641,27.138069 197.076645,23.517252 193.138214,23.040592 
z"/>
<path fill="#759CB6" opacity="1.000000" stroke="none" 
	d="
M145.996155,140.069199 
	C146.077606,139.528824 146.159042,138.988464 146.262039,138.037079 
	C148.531708,137.478027 150.779846,137.329987 153.400177,137.254517 
	C153.790924,138.169037 153.809433,139.011017 153.410141,140.231216 
	C150.660263,140.429367 148.328217,140.249283 145.996155,140.069199 
z"/>
<path fill="#302772" opacity="1.000000" stroke="none" 
	d="
M80.918030,143.529755 
	C82.633278,142.185623 84.366295,141.170288 86.099312,140.154953 
	C86.506393,140.493271 86.913475,140.831604 87.320564,141.169937 
	C86.036362,143.036041 84.752167,144.902145 83.142944,146.924255 
	C82.190552,146.006363 81.563179,144.932449 80.918030,143.529755 
z"/>
<path fill="#24274D" opacity="1.000000" stroke="none" 
	d="
M182.973541,233.557205 
	C183.394333,233.164795 183.831375,233.126556 184.661987,233.431839 
	C186.475250,235.215393 187.894958,236.655457 189.314636,238.095520 
	C188.980743,238.906403 188.646851,239.717285 188.080017,240.765884 
	C186.227982,238.639526 184.608902,236.275452 182.973541,233.557205 
z"/>
<path fill="#2B3669" opacity="1.000000" stroke="none" 
	d="
M189.567047,237.899872 
	C187.894958,236.655457 186.475250,235.215393 184.991180,233.442535 
	C186.816101,233.252502 188.705353,233.395279 190.854614,233.842072 
	C190.682892,235.332123 190.251175,236.518173 189.567047,237.899872 
z"/>
<path fill="#302872" opacity="1.000000" stroke="none" 
	d="
M97.237808,174.322937 
	C98.569038,173.703796 99.934807,173.408447 102.610458,172.829834 
	C101.718178,175.410202 101.151199,177.049835 100.254143,178.862793 
	C99.040161,177.572998 98.156258,176.109863 97.237808,174.322937 
z"/>
<path fill="#393179" opacity="1.000000" stroke="none" 
	d="
M62.116707,172.633301 
	C61.716808,173.160919 61.187695,173.440247 60.384956,173.842133 
	C60.104404,173.218842 60.097477,172.473022 60.090546,171.727188 
	C60.722858,171.946472 61.355175,172.165741 62.116707,172.633301 
z"/>
<path fill="#2F2E75" opacity="1.000000" stroke="none" 
	d="
M69.192169,121.289574 
	C69.450890,121.436310 69.712379,121.831856 70.033722,122.465828 
	C69.794022,122.315628 69.494484,121.927002 69.192169,121.289574 
z"/>
<path fill="#3FC7C8" opacity="1.000000" stroke="none" 
	d="
M325.369324,171.206879 
	C325.536194,171.110046 325.684052,171.217133 325.874023,171.481445 
	C325.944672,171.599289 325.615723,171.599564 325.615723,171.599564 
	C325.615723,171.599564 325.378876,171.371399 325.369324,171.206879 
z"/>
<path fill="#3490B2" opacity="1.000000" stroke="none" 
	d="
M310.066589,267.159973 
	C310.171600,267.019287 310.371429,267.065399 310.686798,267.243652 
	C310.813446,267.327881 310.487152,267.443665 310.487152,267.443665 
	C310.487152,267.443665 310.172516,267.298859 310.066589,267.159973 
z"/>
<path fill="#F6F8F7" opacity="1.000000" stroke="none" 
	d="
M206.158279,24.552959 
	C206.054550,24.411037 206.435730,24.378599 206.625916,24.398352 
	C206.816101,24.418104 206.840118,24.724752 206.856506,24.877663 
	C206.638733,24.974224 206.435104,24.862328 206.158279,24.552959 
z"/>
<path fill="#2F3479" opacity="1.000000" stroke="none" 
	d="
M167.968552,222.001068 
	C168.560760,223.768753 169.152954,225.536438 169.896088,227.618256 
	C165.688492,229.158447 160.980072,225.127945 160.066803,219.295151 
	C159.582642,216.202881 159.250717,213.086792 158.799667,209.590881 
	C155.209625,208.342560 151.200058,207.615082 147.992096,205.607010 
	C145.715836,204.182144 144.402252,201.101364 142.888702,198.619583 
	C141.952927,197.085159 141.469894,195.278488 140.745117,193.610748 
	C138.911835,189.392242 136.997162,185.322998 131.218155,185.825165 
	C130.364197,185.899368 129.434250,185.099106 127.461388,184.226700 
	C129.401184,182.455978 130.856079,181.127899 132.147781,179.948792 
	C131.224686,178.807098 130.179901,177.514877 129.487579,175.916260 
	C131.049088,175.301712 132.258148,174.993546 133.957275,174.766251 
	C137.325821,174.894608 140.204300,174.942108 143.211258,175.312912 
	C148.892731,185.768372 154.445724,195.900513 160.010941,206.408203 
	C162.671631,211.856201 165.320084,216.928635 167.968552,222.001068 
z"/>
<path fill="#30397A" opacity="1.000000" stroke="none" 
	d="
M128.144409,169.054245 
	C121.432045,166.589417 115.937721,161.236603 108.550484,160.341431 
	C109.860168,159.281479 111.020050,158.607132 112.633759,157.946854 
	C120.478981,157.997467 127.870392,158.034012 135.190338,158.423630 
	C136.767563,162.493240 138.416260,166.209763 139.851074,170.203537 
	C137.858170,170.967758 136.079132,171.454727 134.150238,171.602295 
	C132.048386,170.526688 130.096390,169.790466 128.144409,169.054245 
z"/>
<path fill="#EAB289" opacity="1.000000" stroke="none" 
	d="
M128.024170,169.371964 
	C130.096390,169.790466 132.048386,170.526688 134.071808,171.953857 
	C133.917908,173.325027 133.692551,174.005203 133.467194,174.685394 
	C132.258148,174.993546 131.049088,175.301712 129.520554,175.529373 
	C128.768692,173.529144 128.336319,171.609406 128.024170,169.371964 
z"/>
<path fill="#EAB289" opacity="1.000000" stroke="none" 
	d="
M112.179947,157.932770 
	C111.020050,158.607132 109.860168,159.281479 108.350723,160.011322 
	C108.001175,160.066818 107.561020,159.849228 107.318298,159.812408 
	C106.991325,159.457840 106.796822,159.237381 106.274292,159.048889 
	C104.970734,156.302094 105.099205,154.086334 108.984520,153.075409 
	C110.551994,154.033264 111.463478,154.975616 112.302261,156.250153 
	C112.213028,157.032486 112.196487,157.482635 112.179947,157.932770 
z"/>
<path fill="#F9FBF9" opacity="1.000000" stroke="none" 
	d="
M247.460846,193.798523 
	C245.285248,193.819550 243.564896,193.747223 241.421967,193.764542 
	C236.284332,192.736130 233.009872,193.991928 231.719910,199.104355 
	C229.836288,206.569626 225.066208,209.194626 217.487915,207.823502 
	C213.954529,207.184219 210.218140,207.666840 206.132431,207.409393 
	C207.340118,203.459061 208.989151,199.740265 210.883026,195.754486 
	C211.591248,194.381912 212.054657,193.276321 212.742554,191.935150 
	C215.876038,186.132721 218.785019,180.565887 221.927124,174.731110 
	C223.211502,172.351212 224.262741,170.239243 225.542694,167.877045 
	C227.763351,163.736343 229.755310,159.845871 231.954453,155.699890 
	C232.485123,154.648071 232.808624,153.851746 233.386505,152.842621 
	C234.504211,150.808777 235.367538,148.987747 236.542633,147.248993 
	C239.327606,151.554504 241.800827,155.777695 244.274048,160.000885 
	C248.446579,168.123276 252.619125,176.245651 256.983643,185.007141 
	C258.061432,186.879745 258.947174,188.113235 259.832947,189.346725 
	C259.832947,189.346725 259.851410,189.714111 259.969147,189.855438 
	C260.238983,191.179550 260.391083,192.362350 260.272949,193.714325 
	C255.973816,193.824081 251.944946,193.764633 247.460846,193.798523 
z"/>
<path fill="#2DA0B7" opacity="1.000000" stroke="none" 
	d="
M244.646423,160.002014 
	C241.800827,155.777695 239.327606,151.554504 236.482376,146.852478 
	C234.402390,142.262939 232.694427,138.152222 230.986450,134.041489 
	C232.432434,133.049179 233.878433,132.056870 235.662506,131.031677 
	C239.597549,135.428558 243.171646,139.877121 246.796448,144.283966 
	C253.197861,152.066422 259.766663,159.715836 266.004059,167.626968 
	C270.561432,173.407227 274.611511,179.585098 279.074402,185.443497 
	C280.563568,187.398331 282.366089,189.874619 284.481323,190.457352 
	C292.531342,192.675125 295.147491,199.763748 299.329651,205.556229 
	C301.618591,208.726517 304.377136,211.557220 306.916687,214.547211 
	C309.262878,217.309570 311.453949,220.225952 314.010498,222.776672 
	C315.060974,223.824768 317.009369,223.910873 318.324829,224.775986 
	C319.288147,225.409515 320.711823,226.836044 320.520386,227.506638 
	C317.992432,236.361938 323.598938,240.956604 329.829407,244.755600 
	C333.717621,247.126419 333.985168,250.181519 333.925873,253.998947 
	C333.887329,256.482178 334.606293,258.976685 334.980255,261.466949 
	C335.326782,263.774567 335.665771,266.083252 336.004211,268.778503 
	C334.282990,269.197113 332.565704,269.228699 330.424164,268.710327 
	C329.999237,263.829773 330.346283,259.459991 329.863647,255.183838 
	C329.586914,252.731934 328.543213,249.004517 326.843933,248.313858 
	C319.927399,245.502777 319.065674,239.002777 316.197754,233.555237 
	C312.380554,226.304581 308.960052,218.688980 301.419495,214.067078 
	C299.005371,212.587357 297.321167,209.865936 295.419067,207.614578 
	C293.032654,204.789978 291.310181,200.968475 288.337952,199.162140 
	C281.345856,194.912796 275.105591,190.360443 272.481934,182.178665 
	C272.296570,181.600586 271.647125,181.156418 271.176544,180.686981 
	C266.217468,175.739975 261.271790,170.779068 256.255707,165.890427 
	C255.722260,165.370529 254.764557,165.285934 254.003662,164.999390 
	C254.003662,164.999390 254.000000,165.000000 253.961517,164.632492 
	C253.188019,161.122070 251.360703,159.496933 248.000061,160.002441 
	C247.006317,160.002686 246.012573,160.002930 244.646423,160.002014 
z"/>
<path fill="#2F9CB4" opacity="1.000000" stroke="none" 
	d="
M254.009735,165.392975 
	C254.764557,165.285934 255.722260,165.370529 256.255707,165.890427 
	C261.271790,170.779068 266.217468,175.739975 271.176544,180.686981 
	C271.647125,181.156418 272.296570,181.600586 272.481934,182.178665 
	C275.105591,190.360443 281.345856,194.912796 288.337952,199.162140 
	C291.310181,200.968475 293.032654,204.789978 295.419067,207.614578 
	C297.321167,209.865936 299.005371,212.587357 301.419495,214.067078 
	C308.960052,218.688980 312.380554,226.304581 316.197754,233.555237 
	C319.065674,239.002777 319.927399,245.502777 326.843933,248.313858 
	C328.543213,249.004517 329.586914,252.731934 329.863647,255.183838 
	C330.346283,259.459991 329.999237,263.829773 329.999847,268.638428 
	C329.561371,269.155121 329.122986,269.193756 328.364410,269.146851 
	C327.693817,266.619110 327.359863,264.174438 326.989441,261.735291 
	C326.260010,256.931824 325.590027,252.294464 319.916412,250.269379 
	C318.038116,249.598953 316.139435,247.360489 315.409698,245.406006 
	C313.329163,239.833389 310.915161,234.975967 306.463135,230.493256 
	C299.622681,223.605652 294.450409,215.091003 288.199921,207.574722 
	C285.239502,204.014801 281.286621,201.299072 278.039093,197.952682 
	C275.786316,195.631302 273.185974,193.174408 272.119171,190.271545 
	C269.772217,183.885223 265.736908,179.740158 259.531952,177.164261 
	C258.010925,176.532837 256.842072,174.429611 256.081329,172.745560 
	C255.094345,170.560715 254.677872,168.118179 254.009735,165.392975 
z"/>
<path fill="#3490B2" opacity="1.000000" stroke="none" 
	d="
M259.989624,188.979782 
	C258.947174,188.113235 258.061432,186.879745 257.153381,185.321411 
	C258.419800,183.859894 259.708496,182.723236 262.120636,180.595627 
	C261.288971,183.972687 260.717621,186.292770 259.989624,188.979782 
z"/>
<path fill="#2F9CB4" opacity="1.000000" stroke="none" 
	d="
M248.036774,160.348480 
	C251.360703,159.496933 253.188019,161.122070 253.961823,164.630661 
	C252.024902,163.562393 250.049194,162.128464 248.036774,160.348480 
z"/>
<path fill="#F2B88A" opacity="1.000000" stroke="none" 
	d="
M331.837158,238.712128 
	C339.481720,232.018066 342.246460,233.545502 348.996033,239.987991 
	C355.036713,245.753815 354.505463,254.006210 359.640594,259.604218 
	C360.001556,259.997711 360.160339,261.137115 359.874695,261.476532 
	C357.054230,264.827972 354.161865,268.124298 351.116486,271.268280 
	C350.927643,271.463226 349.281891,270.246918 348.181458,269.391510 
	C342.667389,259.079865 337.285858,249.063950 331.837158,238.712128 
z"/>
<path fill="#1D6377" opacity="1.000000" stroke="none" 
	d="
M230.726227,133.833801 
	C232.694427,138.152222 234.402390,142.262939 236.170624,146.770187 
	C235.367538,148.987747 234.504211,150.808777 233.027512,152.825684 
	C231.934723,153.015793 231.455322,153.010025 230.978241,152.631409 
	C230.976105,151.512924 230.971634,150.767273 230.975525,149.636078 
	C229.491211,145.231186 228.453308,140.955185 226.372330,137.267838 
	C224.460159,133.879639 221.424576,131.125412 218.524597,128.077255 
	C217.446838,128.040100 216.728424,128.017548 216.004150,127.627457 
	C214.305756,124.199356 212.613205,121.138832 210.920670,118.078300 
	C213.440262,119.434319 217.132370,120.182655 218.219803,122.280907 
	C220.112595,125.933052 222.800156,127.214073 226.659607,127.994812 
	C228.183395,129.874084 229.324692,131.750092 230.726227,133.833801 
z"/>
<path fill="#2FA7B7" opacity="1.000000" stroke="none" 
	d="
M302.715454,188.276276 
	C303.669739,190.403046 304.335999,192.803696 304.999908,195.600952 
	C299.420105,195.144211 302.695526,191.235748 302.715454,188.276276 
z"/>
<path fill="#F4B181" opacity="1.000000" stroke="none" 
	d="
M63.183331,111.540924 
	C58.003738,113.562065 52.843697,115.598839 47.564308,111.803154 
	C43.690083,109.017731 42.657059,100.072861 45.997337,96.669533 
	C48.834084,93.779228 51.704430,95.773743 54.787678,96.258347 
	C55.443996,96.656815 55.890385,97.303810 56.595806,98.109421 
	C58.947556,102.570305 61.040276,106.872566 63.183331,111.540924 
z"/>
<path fill="#F0BC98" opacity="1.000000" stroke="none" 
	d="
M97.926895,137.639038 
	C98.109718,138.413574 98.086792,138.883804 97.877609,139.998413 
	C95.813393,141.064194 93.935425,141.485611 92.057449,141.907013 
	C92.057449,141.907013 92.012558,141.985474 92.011696,141.683273 
	C91.808929,140.869232 91.607025,140.357376 91.405121,139.845535 
	C91.416550,139.456161 91.427971,139.066803 91.410858,138.386566 
	C93.198807,135.372559 95.261681,134.701797 97.926895,137.639038 
z"/>
<path fill="#344F89" opacity="1.000000" stroke="none" 
	d="
M210.638184,196.021469 
	C208.989151,199.740265 207.340118,203.459061 205.719269,207.504227 
	C202.165314,207.899857 198.583176,207.969116 194.379700,207.728546 
	C192.124329,202.819580 188.752609,201.174011 184.345703,201.505585 
	C188.244904,200.103745 188.899963,198.067764 185.956772,195.731384 
	C180.539902,191.431335 175.688171,186.829025 173.862488,179.579849 
	C174.616318,178.168732 175.279907,177.072052 176.258850,176.137665 
	C180.054657,181.203629 183.013580,186.608856 187.135880,190.895309 
	C193.581482,197.597610 202.422409,195.961792 210.638184,196.021469 
z"/>
<path fill="#F0BC98" opacity="1.000000" stroke="none" 
	d="
M184.086563,201.728439 
	C188.752609,201.174011 192.124329,202.819580 193.915833,207.741302 
	C194.037445,208.477066 194.001587,208.890274 194.015808,209.610641 
	C193.880859,210.191391 193.704010,210.470169 192.979095,210.838898 
	C186.814774,202.269623 186.815552,202.270355 179.546570,209.893906 
	C179.455994,209.988907 179.230225,209.955032 179.067551,209.981323 
	C179.067551,209.981323 178.777420,209.678955 178.635223,209.460968 
	C178.493027,209.242996 178.380646,209.103271 178.415405,208.687622 
	C178.068909,207.940613 177.687637,207.609268 177.561493,207.261444 
	C178.055511,207.025269 178.294388,206.805588 178.761276,206.517471 
	C180.688370,204.875488 182.387466,203.301956 184.086563,201.728439 
z"/>
<path fill="#3FC7C8" opacity="1.000000" stroke="none" 
	d="
M328.798218,94.795563 
	C328.196289,94.432037 327.893677,94.005440 327.591095,93.578827 
	C328.038361,93.463577 328.485657,93.348335 328.932922,93.233093 
	C328.987823,93.732887 329.042694,94.232681 328.798218,94.795563 
z"/>
<path fill="#30397A" opacity="1.000000" stroke="none" 
	d="
M92.074356,142.272675 
	C93.935425,141.485611 95.813393,141.064194 97.919167,140.349197 
	C101.788254,140.047043 105.429527,140.038498 109.580734,140.404541 
	C111.391083,141.569000 112.600647,142.629623 114.007690,143.101868 
	C120.072617,145.137482 122.534500,148.294479 122.576508,155.058868 
	C118.881310,155.346985 115.628143,155.632477 112.374969,155.917969 
	C111.463478,154.975616 110.551994,154.033264 109.318962,152.983765 
	C108.072693,149.134674 105.051537,148.796173 101.926460,147.837082 
	C98.444214,146.768372 95.352798,144.426178 92.074356,142.272675 
z"/>
<path fill="#30397A" opacity="1.000000" stroke="none" 
	d="
M91.119141,139.992706 
	C91.607025,140.357376 91.808929,140.869232 92.051498,141.661850 
	C91.672493,141.341705 91.252831,140.740784 91.119141,139.992706 
z"/>
<path fill="#2C7F9F" opacity="1.000000" stroke="none" 
	d="
M230.967178,150.021622 
	C230.971634,150.767273 230.976105,151.512924 230.751282,152.786530 
	C230.930405,154.194778 231.338837,155.075073 231.747284,155.955383 
	C229.755310,159.845871 227.763351,163.736343 225.177612,167.810089 
	C223.978363,167.476471 223.126373,167.080475 222.804581,166.424423 
	C218.362411,157.367844 210.823196,152.620773 201.226593,150.559402 
	C197.748123,149.812225 194.338394,148.745087 190.951889,147.486694 
	C191.959244,145.103378 192.911987,143.057327 193.864746,141.011292 
	C196.927414,140.684998 199.990067,140.358688 203.714935,140.306793 
	C206.228699,141.220490 208.053406,142.145950 209.948288,142.323822 
	C210.513367,142.376862 211.953629,140.215805 211.788971,139.281357 
	C211.536865,137.850677 210.054214,135.404816 209.422409,135.503036 
	C207.491928,135.803162 205.718307,137.112061 203.883652,138.028488 
	C201.439392,138.014526 198.995132,138.000565 196.082458,137.958206 
	C196.593445,135.835968 197.572830,133.742126 199.176407,131.335968 
	C205.523087,131.001617 211.245560,130.979614 216.983765,131.331879 
	C218.753113,133.963074 220.525864,136.205444 222.256058,138.480209 
	C225.173981,142.316528 228.064911,146.173386 230.967178,150.021622 
z"/>
<path fill="#2C7F9F" opacity="1.000000" stroke="none" 
	d="
M210.525055,118.049469 
	C212.613205,121.138832 214.305756,124.199356 215.536621,127.640388 
	C210.342438,128.005371 205.609909,127.989838 200.877380,127.974312 
	C202.212997,125.236626 203.548599,122.498940 204.876282,119.410492 
	C205.203583,118.808418 205.538788,118.557121 206.035202,118.024857 
	C207.507416,117.836143 208.818436,117.928391 210.525055,118.049469 
z"/>
<path fill="#359AB3" opacity="1.000000" stroke="none" 
	d="
M200.574921,128.123032 
	C205.609909,127.989838 210.342438,128.005371 215.542480,128.007950 
	C216.728424,128.017548 217.446838,128.040100 218.512390,128.377808 
	C218.229019,129.447861 217.598526,130.202744 216.968048,130.957626 
	C211.245560,130.979614 205.523087,131.001617 199.320618,131.029633 
	C198.426407,130.959305 198.012177,130.882950 197.292664,130.439148 
	C196.998047,129.704056 197.008667,129.336456 197.019287,128.968842 
	C198.103683,128.736481 199.188065,128.504120 200.574921,128.123032 
z"/>
<path fill="#3E729E" opacity="1.000000" stroke="none" 
	d="
M196.650284,128.877411 
	C197.008667,129.336456 196.998047,129.704056 196.989685,130.347382 
	C195.614426,131.103485 194.258667,131.878143 192.853302,131.982178 
	C191.425919,132.087814 189.851898,131.738632 188.559662,131.128128 
	C188.213348,130.964493 188.324539,128.416382 188.809479,128.184662 
	C190.077759,127.578644 191.683777,127.424301 193.126068,127.521545 
	C194.201324,127.594055 195.231201,128.339981 196.650284,128.877411 
z"/>
<path fill="#24274D" opacity="1.000000" stroke="none" 
	d="
M168.350067,222.005936 
	C165.320084,216.928635 162.671631,211.856201 160.204926,206.138885 
	C161.413132,203.578110 162.439590,201.662201 163.861694,199.847076 
	C164.820312,200.670135 165.578217,201.311844 165.915268,202.127472 
	C168.535004,208.466949 170.964233,214.911346 176.982132,219.018890 
	C178.200653,220.173386 179.419159,221.327896 180.820984,222.740295 
	C181.660583,225.402954 182.316895,227.807739 182.971619,230.589325 
	C182.101822,231.140106 181.233627,231.314087 180.149734,231.748688 
	C178.988174,231.238678 177.321838,230.556244 177.214935,229.682922 
	C176.585236,224.539047 173.052353,222.905289 168.350067,222.005936 
z"/>
<path fill="#EAB289" opacity="1.000000" stroke="none" 
	d="
M179.042160,210.350006 
	C179.230225,209.955032 179.455994,209.988907 179.546570,209.893906 
	C186.815552,202.270355 186.814774,202.269623 192.786407,210.992798 
	C191.932327,212.589081 190.714722,214.116257 189.258270,215.875626 
	C184.501297,216.508896 180.502274,215.946426 179.042160,210.350006 
z"/>
<path fill="#2B3669" opacity="1.000000" stroke="none" 
	d="
M176.982239,218.625381 
	C170.964233,214.911346 168.535004,208.466949 165.915268,202.127472 
	C165.578217,201.311844 164.820312,200.670135 163.951080,199.530334 
	C164.038605,198.381958 164.432404,197.651108 165.145081,196.960052 
	C165.979828,197.332596 166.495697,197.665375 167.066254,198.350510 
	C169.308792,201.606445 169.520416,206.651566 175.592682,206.038635 
	C176.963226,206.259964 177.748245,206.422943 178.533264,206.585907 
	C178.294388,206.805588 178.055511,207.025269 177.564606,207.649597 
	C177.668579,208.403915 178.024612,208.753601 178.380646,209.103271 
	C178.380646,209.103271 178.493027,209.242996 178.473602,209.327637 
	C175.778488,211.987488 175.810486,215.014572 176.982239,218.625381 
z"/>
<path fill="#F6F8F7" opacity="1.000000" stroke="none" 
	d="
M193.408661,140.950531 
	C192.911987,143.057327 191.959244,145.103378 190.702087,147.706711 
	C189.850723,149.471161 189.303726,150.678345 188.511902,152.114059 
	C187.127838,154.763550 185.988617,157.184479 184.576050,159.830933 
	C182.494675,163.358948 180.686615,166.661453 178.558563,170.202850 
	C176.877304,170.806915 175.527451,171.430862 174.152771,171.491486 
	C168.779663,171.728424 163.398697,171.787201 157.557465,171.838562 
	C152.385437,171.850128 147.676605,171.935364 142.691818,171.893021 
	C141.632217,171.152390 140.848587,170.539337 140.064957,169.926285 
	C138.416260,166.209763 136.767563,162.493240 135.636719,158.489822 
	C148.109039,158.120178 160.063507,158.037445 172.308655,158.183960 
	C174.284393,158.766724 175.969482,159.120255 177.654556,159.473785 
	C177.924210,158.139328 178.193863,156.804871 178.463516,155.470413 
	C176.733200,155.161102 175.009735,154.793793 173.267166,154.588455 
	C172.891281,154.544174 172.446594,155.083664 171.563965,155.384277 
	C158.166428,155.255508 145.238525,155.096725 132.200775,154.589508 
	C130.137711,149.519592 128.184494,144.798096 126.231270,140.076599 
	C132.508041,140.091827 138.784821,140.107071 145.528870,140.095749 
	C148.328217,140.249283 150.660263,140.429367 153.391525,140.549622 
	C156.079330,142.593323 158.063034,145.780273 160.732208,146.531433 
	C164.220123,147.512970 167.184616,144.934296 169.003967,141.181915 
	C177.119461,140.884033 185.036011,140.886917 193.408661,140.950531 
z"/>
<path fill="#EAB289" opacity="1.000000" stroke="none" 
	d="
M203.906281,138.362396 
	C205.718307,137.112061 207.491928,135.803162 209.422409,135.503036 
	C210.054214,135.404816 211.536865,137.850677 211.788971,139.281357 
	C211.953629,140.215805 210.513367,142.376862 209.948288,142.323822 
	C208.053406,142.145950 206.228699,141.220490 204.153412,140.309265 
	C203.929413,139.590302 203.929153,139.143311 203.906281,138.362396 
z"/>
<path fill="#30437F" opacity="1.000000" stroke="none" 
	d="
M125.925873,140.080246 
	C128.184494,144.798096 130.137711,149.519592 131.789658,154.625885 
	C128.665100,155.025864 125.841820,155.041046 123.018532,155.056244 
	C122.534500,148.294479 120.072617,145.137482 114.007690,143.101868 
	C112.600647,142.629623 111.391083,141.569000 110.038589,140.418381 
	C114.683357,140.041412 119.380180,140.025177 124.544449,140.020172 
	C125.214752,140.048874 125.417618,140.066376 125.925873,140.080246 
z"/>
<path fill="#F6F8F7" opacity="1.000000" stroke="none" 
	d="
M164.826202,196.920258 
	C164.432404,197.651108 164.038605,198.381958 163.555420,199.429550 
	C162.439590,201.662201 161.413132,203.578110 160.192688,205.763336 
	C154.445724,195.900513 148.892731,185.768372 143.324112,175.226273 
	C143.308472,174.816315 143.271713,174.534286 143.711456,174.469070 
	C148.752655,174.316238 153.354080,174.228638 158.311981,174.310028 
	C164.482269,174.620728 170.296127,174.762421 176.031158,175.166138 
	C175.949402,175.610580 175.946472,175.792984 175.943512,175.975372 
	C175.279907,177.072052 174.616318,178.168732 173.574524,179.770264 
	C170.406281,185.823486 167.616241,191.371872 164.826202,196.920258 
z"/>
<path fill="#3E588E" opacity="1.000000" stroke="none" 
	d="
M143.271713,174.534286 
	C143.271713,174.534286 143.308472,174.816315 143.195618,174.902954 
	C140.204300,174.942108 137.325821,174.894608 133.957275,174.766251 
	C133.692551,174.005203 133.917908,173.325027 134.221680,172.293259 
	C136.079132,171.454727 137.858170,170.967758 139.851074,170.203537 
	C140.848587,170.539337 141.632217,171.152390 142.713745,172.314987 
	C143.098328,173.421112 143.185028,173.977692 143.271713,174.534286 
z"/>
<path fill="#3E729E" opacity="1.000000" stroke="none" 
	d="
M122.576508,155.058868 
	C125.841820,155.041046 128.665100,155.025864 131.899506,154.974304 
	C145.238525,155.096725 158.166428,155.255508 171.562012,155.709412 
	C172.025772,156.654587 172.021866,157.304657 172.017975,157.954712 
	C160.063507,158.037445 148.109039,158.120178 135.708191,158.136734 
	C127.870392,158.034012 120.478981,157.997467 112.633759,157.946869 
	C112.196487,157.482635 112.213028,157.032486 112.302261,156.250153 
	C115.628143,155.632477 118.881310,155.346985 122.576508,155.058868 
z"/>
<path fill="#3B7EA6" opacity="1.000000" stroke="none" 
	d="
M188.756744,151.885513 
	C189.303726,150.678345 189.850723,149.471161 190.647491,148.043976 
	C194.338394,148.745087 197.748123,149.812225 201.226593,150.559402 
	C210.823196,152.620773 218.362411,157.367844 222.804581,166.424423 
	C223.126373,167.080475 223.978363,167.476471 224.948914,168.060333 
	C224.262741,170.239243 223.211502,172.351212 221.587891,174.676682 
	C216.955688,170.622940 211.962250,173.150986 207.237518,172.643661 
	C205.109741,165.888718 203.025085,164.692276 195.990295,165.514282 
	C193.575439,160.726959 191.166092,156.306244 188.756744,151.885513 
z"/>
<path fill="#3C6395" opacity="1.000000" stroke="none" 
	d="
M176.258850,176.137665 
	C175.946472,175.792984 175.949402,175.610580 176.407257,175.014465 
	C181.935837,174.408295 187.009506,174.215820 192.232285,174.327209 
	C195.670288,180.042450 197.632996,180.747711 204.069565,179.120392 
	C206.974594,183.695435 209.746323,187.933075 212.518066,192.170731 
	C212.054657,193.276321 211.591248,194.381912 210.883026,195.754486 
	C202.422409,195.961792 193.581482,197.597610 187.135880,190.895309 
	C183.013580,186.608856 180.054657,181.203629 176.258850,176.137665 
z"/>
<path fill="#3E729E" opacity="1.000000" stroke="none" 
	d="
M212.742554,191.935150 
	C209.746323,187.933075 206.974594,183.695435 204.245682,178.839600 
	C205.304138,176.484497 206.319778,174.747574 207.335419,173.010651 
	C211.962250,173.150986 216.955688,170.622940 221.354752,174.944611 
	C218.785019,180.565887 215.876038,186.132721 212.742554,191.935150 
z"/>
<path fill="#24768E" opacity="1.000000" stroke="none" 
	d="
M231.954437,155.699890 
	C231.338837,155.075073 230.930405,154.194778 230.748947,153.159363 
	C231.455322,153.010025 231.934723,153.015793 232.773132,153.038498 
	C232.808624,153.851746 232.485123,154.648071 231.954437,155.699890 
z"/>
<path fill="#24768E" opacity="1.000000" stroke="none" 
	d="
M216.983765,131.331879 
	C217.598526,130.202744 218.229019,129.447861 218.871704,128.392426 
	C221.424576,131.125412 224.460159,133.879639 226.372330,137.267838 
	C228.453308,140.955185 229.491211,145.231186 230.975525,149.636078 
	C228.064911,146.173386 225.173981,142.316528 222.256058,138.480209 
	C220.525864,136.205444 218.753113,133.963074 216.983765,131.331879 
z"/>
<path fill="#30437F" opacity="1.000000" stroke="none" 
	d="
M165.145081,196.960052 
	C167.616241,191.371872 170.406281,185.823486 173.484283,180.084686 
	C175.688171,186.829025 180.539902,191.431335 185.956772,195.731384 
	C188.899963,198.067764 188.244904,200.103745 184.345703,201.505585 
	C182.387466,203.301956 180.688370,204.875488 178.761276,206.517456 
	C177.748245,206.422943 176.963226,206.259964 175.590485,205.655151 
	C175.033569,199.823929 170.610260,199.367691 167.011566,197.998138 
	C166.495697,197.665375 165.979828,197.332596 165.145081,196.960052 
z"/>
<path fill="#30397A" opacity="1.000000" stroke="none" 
	d="
M178.415405,208.687622 
	C178.024612,208.753601 177.668579,208.403915 177.309448,207.666077 
	C177.687637,207.609268 178.068909,207.940613 178.415405,208.687622 
z"/>
<path fill="#30397A" opacity="1.000000" stroke="none" 
	d="
M167.066254,198.350510 
	C170.610260,199.367691 175.033569,199.823929 175.004944,205.596802 
	C169.520416,206.651566 169.308792,201.606445 167.066254,198.350510 
z"/>
<path fill="#316299" opacity="1.000000" stroke="none" 
	d="
M178.878555,169.963928 
	C180.686615,166.661453 182.494675,163.358948 184.635422,160.171204 
	C186.180466,160.146286 187.392822,160.006638 189.565842,159.756332 
	C190.518112,162.432770 191.688766,165.723038 192.890289,169.300873 
	C192.696152,170.108276 192.471161,170.628082 191.770630,171.106964 
	C187.156250,170.698669 183.017410,170.331299 178.878555,169.963928 
z"/>
<path fill="#359AB3" opacity="1.000000" stroke="none" 
	d="
M178.558563,170.202850 
	C183.017410,170.331299 187.156250,170.698669 191.774017,171.465729 
	C192.196335,172.584747 192.139740,173.304062 192.083160,174.023361 
	C187.009506,174.215820 181.935837,174.408295 176.486084,174.752441 
	C170.296127,174.762421 164.482269,174.620728 158.329712,173.938782 
	C158.000900,172.903107 158.010773,172.407654 158.020660,171.912216 
	C163.398697,171.787201 168.779663,171.728424 174.152771,171.491486 
	C175.527451,171.430862 176.877304,170.806915 178.558563,170.202850 
z"/>
<path fill="#3E729E" opacity="1.000000" stroke="none" 
	d="
M192.859436,169.013306 
	C191.688766,165.723038 190.518112,162.432770 189.565842,159.756332 
	C187.392822,160.006638 186.180466,160.146286 184.908752,159.945679 
	C185.988617,157.184479 187.127838,154.763550 188.511902,152.114059 
	C191.166092,156.306244 193.575439,160.726959 195.701843,165.655487 
	C194.565735,167.113297 193.712585,168.063293 192.859436,169.013306 
z"/>
<path fill="#3E588E" opacity="1.000000" stroke="none" 
	d="
M172.308655,158.183960 
	C172.021866,157.304657 172.025772,156.654587 172.031647,155.679398 
	C172.446594,155.083664 172.891281,154.544174 173.267166,154.588455 
	C175.009735,154.793793 176.733200,155.161102 178.463516,155.470413 
	C178.193863,156.804871 177.924210,158.139328 177.654556,159.473785 
	C175.969482,159.120255 174.284393,158.766724 172.308655,158.183960 
z"/>
<path fill="#2C7F9F" opacity="1.000000" stroke="none" 
	d="
M157.557465,171.838562 
	C158.010773,172.407654 158.000900,172.903107 157.973267,173.769775 
	C153.354080,174.228638 148.752655,174.316238 143.711456,174.469070 
	C143.185028,173.977692 143.098328,173.421112 142.989716,172.442551 
	C147.676605,171.935364 152.385437,171.850128 157.557465,171.838562 
z"/>
<path fill="#EAB289" opacity="1.000000" stroke="none" 
	d="
M192.890289,169.300873 
	C193.712585,168.063293 194.565735,167.113297 195.707336,166.022095 
	C203.025085,164.692276 205.109741,165.888718 207.237518,172.643661 
	C206.319778,174.747574 205.304138,176.484497 204.112396,178.502228 
	C197.632996,180.747711 195.670288,180.042450 192.232269,174.327209 
	C192.139740,173.304062 192.196335,172.584747 192.249542,171.506683 
	C192.471161,170.628082 192.696152,170.108276 192.890289,169.300873 
z"/>
</svg>